<svg width="78" height="40" viewBox="0 0 78 40" fill="none" xmlns="http://www.w3.org/2000/svg">
<rect width="78" height="40" fill="#FB8474"/>
<path fill-rule="evenodd" clip-rule="evenodd" d="M29.1092 16.321C30.2627 13.468 31.6502 11.5 34.7912 11.5H43.2107C46.3487 11.5 47.7377 13.468 48.8927 16.321L50.0462 19.3735C50.9057 19.3838 51.6952 19.8491 52.1207 20.596C52.371 21.0214 52.5021 21.5064 52.5002 22V25.936C52.5114 26.855 52.0475 27.7148 51.2732 28.21C50.905 28.4393 50.48 28.5609 50.0462 28.561H27.9542C27.5204 28.5609 27.0954 28.4393 26.7272 28.21C25.9529 27.7148 25.489 26.855 25.5002 25.936V22C25.4986 21.5069 25.6297 21.0225 25.8797 20.5975C26.3051 19.8506 27.0947 19.3853 27.9542 19.375L29.1092 16.321Z" stroke="white" stroke-width="1.5" stroke-linecap="round" stroke-linejoin="round"/>
<path d="M31.1596 28.5625C31.1596 28.1483 30.8238 27.8125 30.4096 27.8125C29.9954 27.8125 29.6596 28.1483 29.6596 28.5625H31.1596ZM30.4096 30.532H29.6596C29.6596 30.54 29.6598 30.5481 29.66 30.5561L30.4096 30.532ZM28.5676 32.5L28.5415 33.2496C28.5587 33.2502 28.576 33.2502 28.5932 33.2496L28.5676 32.5ZM26.7271 30.5305L27.4767 30.5552C27.477 30.547 27.4771 30.5387 27.4771 30.5305H26.7271ZM27.4771 28.21C27.4771 27.7958 27.1413 27.46 26.7271 27.46C26.3129 27.46 25.9771 27.7958 25.9771 28.21H27.4771ZM27.9541 18.6235C27.5399 18.6235 27.2041 18.9593 27.2041 19.3735C27.2041 19.7877 27.5399 20.1235 27.9541 20.1235V18.6235ZM50.0461 20.1235C50.4603 20.1235 50.7961 19.7877 50.7961 19.3735C50.7961 18.9593 50.4603 18.6235 50.0461 18.6235V20.1235ZM48.3421 28.561C48.3421 28.1468 48.0063 27.811 47.5921 27.811C47.1779 27.811 46.8421 28.1468 46.8421 28.561H48.3421ZM47.5921 30.5305L48.3406 30.5783C48.3416 30.5624 48.3421 30.5465 48.3421 30.5305L47.5921 30.5305ZM48.4771 32.226L48.8658 31.5846L48.4771 32.226ZM50.3896 32.226L50.0009 31.5846L50.3896 32.226ZM51.2746 30.5305H50.5246C50.5246 30.5465 50.5251 30.5624 50.5261 30.5783L51.2746 30.5305ZM52.0246 28.21C52.0246 27.7958 51.6888 27.46 51.2746 27.46C50.8604 27.46 50.5246 27.7958 50.5246 28.21H52.0246ZM30.0001 23.5C29.5859 23.5 29.2501 23.8358 29.2501 24.25C29.2501 24.6642 29.5859 25 30.0001 25V23.5ZM31.5001 25C31.9143 25 32.2501 24.6642 32.2501 24.25C32.2501 23.8358 31.9143 23.5 31.5001 23.5V25ZM46.5001 23.5C46.0859 23.5 45.7501 23.8358 45.7501 24.25C45.7501 24.6642 46.0859 25 46.5001 25V23.5ZM48.0001 25C48.4143 25 48.7501 24.6642 48.7501 24.25C48.7501 23.8358 48.4143 23.5 48.0001 23.5V25ZM29.6596 28.5625V30.532H31.1596V28.5625H29.6596ZM29.66 30.5561C29.6805 31.1943 29.1803 31.7287 28.5421 31.7505L28.5932 33.2496C30.0582 33.1996 31.2062 31.9731 31.1592 30.508L29.66 30.5561ZM28.5938 31.7505C27.9555 31.7282 27.4557 31.1935 27.4767 30.5552L25.9775 30.5059C25.9294 31.971 27.0765 33.1985 28.5415 33.2496L28.5938 31.7505ZM27.4771 30.5305V28.21H25.9771V30.5305H27.4771ZM27.9541 20.1235H50.0461V18.6235H27.9541V20.1235ZM46.8421 28.561V30.5305H48.3421V28.561H46.8421ZM46.8436 30.4827C46.782 31.4474 47.2617 32.3664 48.0884 32.8674L48.8658 31.5846C48.517 31.3732 48.3146 30.9854 48.3406 30.5783L46.8436 30.4827ZM48.0884 32.8674C48.9151 33.3684 49.9517 33.3684 50.7783 32.8674L50.0009 31.5846C49.6521 31.796 49.2147 31.796 48.8658 31.5846L48.0884 32.8674ZM50.7783 32.8674C51.605 32.3664 52.0847 31.4474 52.0231 30.4827L50.5261 30.5783C50.5521 30.9854 50.3497 31.3732 50.0009 31.5846L50.7783 32.8674ZM52.0246 30.5305V28.21H50.5246V30.5305H52.0246ZM30.0001 25H31.5001V23.5H30.0001V25ZM46.5001 25H48.0001V23.5H46.5001V25Z" fill="white"/>
</svg>
