<svg width="298" height="51" viewBox="0 0 298 51" fill="none" xmlns="http://www.w3.org/2000/svg">
<rect width="298" height="51" rx="6" fill="#59A2E5"/>
<path d="M13.7155 34.1665C13.7155 33.7523 13.3797 33.4165 12.9655 33.4165C12.5513 33.4165 12.2155 33.7523 12.2155 34.1665H13.7155ZM12.9655 35.9165H12.2155C12.2155 35.9278 12.2157 35.9392 12.2162 35.9505L12.9655 35.9165ZM11.3647 37.6665L11.3277 38.4156C11.3526 38.4168 11.3776 38.4168 11.4025 38.4156L11.3647 37.6665ZM9.76231 35.9165L10.5115 35.9505C10.5121 35.9391 10.5123 35.9278 10.5123 35.9165H9.76231ZM10.5123 33.8548C10.5123 33.4406 10.1765 33.1048 9.76231 33.1048C9.3481 33.1048 9.01231 33.4406 9.01231 33.8548H10.5123ZM10.1655 33.2225C9.81629 32.9998 9.35263 33.1024 9.12993 33.4516C8.90723 33.8009 9.00983 34.2645 9.35908 34.4872L10.1655 33.2225ZM10.8295 34.1665L10.8286 34.9165H10.8295V34.1665ZM30.0501 34.1665V34.9165H30.0511L30.0501 34.1665ZM31.5205 34.4872C31.8698 34.2645 31.9724 33.8009 31.7497 33.4516C31.527 33.1024 31.0633 32.9998 30.7141 33.2225L31.5205 34.4872ZM9.34792 34.48C9.69317 34.7088 10.1586 34.6145 10.3874 34.2692C10.6163 33.924 10.522 33.4586 10.1767 33.2297L9.34792 34.48ZM8.69515 31.8332L9.44515 31.8456V31.8332H8.69515ZM9.44515 22.9998C9.44515 22.5856 9.10936 22.2498 8.69515 22.2498C8.28094 22.2498 7.94515 22.5856 7.94515 22.9998H9.44515ZM28.6658 34.1665C28.6658 33.7523 28.33 33.4165 27.9158 33.4165C27.5016 33.4165 27.1658 33.7523 27.1658 34.1665H28.6658ZM27.9158 35.9165L28.6622 35.9896C28.6646 35.9653 28.6658 35.9409 28.6658 35.9165H27.9158ZM28.6682 37.4288L28.2744 38.0671H28.2744L28.6682 37.4288ZM30.3666 37.4288L30.7604 38.0671L30.3666 37.4288ZM31.119 35.9165H30.369C30.369 35.9409 30.3702 35.9653 30.3725 35.9896L31.119 35.9165ZM31.869 33.8548C31.869 33.4406 31.5332 33.1048 31.119 33.1048C30.7048 33.1048 30.369 33.4406 30.369 33.8548H31.869ZM30.7046 33.2297C30.3593 33.4586 30.265 33.924 30.4939 34.2692C30.7227 34.6145 31.1881 34.7088 31.5334 34.48L30.7046 33.2297ZM32.1861 31.8332H31.436L31.4362 31.8456L32.1861 31.8332ZM32.9361 22.9998C32.9361 22.5856 32.6004 22.2498 32.1861 22.2498C31.7719 22.2498 31.4361 22.5856 31.4361 22.9998H32.9361ZM12.6098 27.5832C12.1955 27.5832 11.8598 27.919 11.8598 28.3332C11.8598 28.7474 12.1955 29.0832 12.6098 29.0832V27.5832ZM13.9152 29.0832C14.3294 29.0832 14.6652 28.7474 14.6652 28.3332C14.6652 27.919 14.3294 27.5832 13.9152 27.5832V29.0832ZM26.9661 27.5832C26.5519 27.5832 26.2161 27.919 26.2161 28.3332C26.2161 28.7474 26.5519 29.0832 26.9661 29.0832V27.5832ZM28.2715 29.0832C28.6857 29.0832 29.0215 28.7474 29.0215 28.3332C29.0215 27.919 28.6857 27.5832 28.2715 27.5832V29.0832ZM31.436 22.9998C31.436 23.4141 31.7718 23.7498 32.186 23.7498C32.6002 23.7498 32.936 23.4141 32.936 22.9998H31.436ZM32.186 14.9998H32.936V14.9997L32.186 14.9998ZM31.8504 13.7532L31.1928 14.1137C31.1956 14.1189 31.1985 14.1241 31.2015 14.1292L31.8504 13.7532ZM30.05 12.6665L30.0648 11.9166C30.0599 11.9166 30.0549 11.9165 30.05 11.9165V12.6665ZM10.831 12.6665V11.9165C10.8261 11.9165 10.8212 11.9166 10.8162 11.9166L10.831 12.6665ZM9.0306 13.7532L9.67951 14.1292C9.68249 14.1241 9.68541 14.1189 9.68827 14.1137L9.0306 13.7532ZM8.69502 14.9998L7.94502 14.9997V14.9998H8.69502ZM7.94502 22.9998C7.94502 23.4141 8.2808 23.7498 8.69502 23.7498C9.10923 23.7498 9.44502 23.4141 9.44502 22.9998H7.94502ZM32.1861 23.7498C32.6004 23.7498 32.9361 23.4141 32.9361 22.9998C32.9361 22.5856 32.6004 22.2498 32.1861 22.2498V23.7498ZM8.69515 22.2498C8.28094 22.2498 7.94515 22.5856 7.94515 22.9998C7.94515 23.4141 8.28094 23.7498 8.69515 23.7498V22.2498ZM12.2155 34.1665V35.9165H13.7155V34.1665H12.2155ZM12.2162 35.9505C12.2391 36.4548 11.8468 36.8913 11.327 36.9175L11.4025 38.4156C12.7373 38.3483 13.7754 37.2209 13.7147 35.8825L12.2162 35.9505ZM11.4017 36.9174C10.8816 36.8917 10.4887 36.4551 10.5115 35.9505L9.01308 35.8825C8.95238 37.2218 9.99192 38.3496 11.3277 38.4156L11.4017 36.9174ZM10.5123 35.9165V33.8548H9.01231V35.9165H10.5123ZM9.35908 34.4872C9.79796 34.7671 10.3079 34.9159 10.8286 34.9165L10.8304 33.4165C10.5943 33.4162 10.3635 33.3487 10.1655 33.2225L9.35908 34.4872ZM10.8295 34.9165H30.0501V33.4165H10.8295V34.9165ZM30.0511 34.9165C30.5717 34.9159 31.0817 34.7671 31.5205 34.4872L30.7141 33.2225C30.5161 33.3487 30.2854 33.4162 30.0492 33.4165L30.0511 34.9165ZM10.1767 33.2297C9.71014 32.9204 9.43587 32.3986 9.44505 31.8456L7.94525 31.8207C7.92754 32.8883 8.45725 33.8895 9.34792 34.48L10.1767 33.2297ZM9.44515 31.8332V22.9998H7.94515V31.8332H9.44515ZM27.1658 34.1665V35.9165H28.6658V34.1665H27.1658ZM27.1694 35.8434C27.0821 36.7354 27.5122 37.5968 28.2744 38.0671L29.0621 36.7906C28.7843 36.6191 28.6311 36.3081 28.6622 35.9896L27.1694 35.8434ZM28.2744 38.0671C29.0358 38.537 29.999 38.537 30.7604 38.0671L29.9727 36.7906C29.6941 36.9625 29.3407 36.9625 29.0621 36.7906L28.2744 38.0671ZM30.7604 38.0671C31.5226 37.5968 31.9527 36.7354 31.8654 35.8434L30.3725 35.9896C30.4037 36.3081 30.2505 36.6191 29.9727 36.7906L30.7604 38.0671ZM31.869 35.9165V33.8548H30.369V35.9165H31.869ZM31.5334 34.48C32.424 33.8895 32.9537 32.8883 32.936 31.8207L31.4362 31.8456C31.4454 32.3986 31.1711 32.9204 30.7046 33.2297L31.5334 34.48ZM32.9361 31.8332V22.9998H31.4361V31.8332H32.9361ZM12.6098 29.0832H13.9152V27.5832H12.6098V29.0832ZM26.9661 29.0832H28.2715V27.5832H26.9661V29.0832ZM32.936 22.9998V14.9998H31.436V22.9998H32.936ZM32.936 14.9997C32.9359 14.4299 32.7852 13.8703 32.4993 13.3771L31.2015 14.1292C31.3552 14.3944 31.4359 14.6947 31.436 15L32.936 14.9997ZM32.5081 13.3927C32.018 12.4986 31.0846 11.9368 30.0648 11.9166L30.0352 13.4164C30.5214 13.4259 30.9625 13.6937 31.1928 14.1137L32.5081 13.3927ZM30.05 11.9165H10.831V13.4165H30.05V11.9165ZM10.8162 11.9166C9.79638 11.9368 8.86306 12.4986 8.37293 13.3927L9.68827 14.1137C9.9185 13.6937 10.3596 13.4259 10.8458 13.4164L10.8162 11.9166ZM8.3817 13.3771C8.09585 13.8703 7.94514 14.4299 7.94502 14.9997L9.44502 15C9.44509 14.6947 9.52581 14.3944 9.67951 14.1292L8.3817 13.3771ZM7.94502 14.9998V22.9998H9.44502V14.9998H7.94502ZM32.1861 22.2498H8.69515V23.7498H32.1861V22.2498Z" fill="white"/>
</svg>
