<svg width="41" height="41" viewBox="0 0 41 41" fill="none" xmlns="http://www.w3.org/2000/svg">
<path d="M13.7591 28.6388C13.7591 28.2246 13.4233 27.8888 13.0091 27.8888C12.5949 27.8888 12.2591 28.2246 12.2591 28.6388H13.7591ZM13.0091 30.3834H12.2591C12.2591 30.3948 12.2594 30.4062 12.2599 30.4176L13.0091 30.3834ZM11.403 32.128L11.3662 32.8771C11.391 32.8783 11.4158 32.8783 11.4405 32.8771L11.403 32.128ZM9.79519 30.3834L10.5444 30.4176C10.5449 30.4062 10.5452 30.3948 10.5452 30.3834H9.79519ZM10.5452 28.3281C10.5452 27.9139 10.2094 27.5781 9.79519 27.5781C9.38098 27.5781 9.04519 27.9139 9.04519 28.3281H10.5452ZM10.1966 27.6945C9.84668 27.4729 9.38332 27.5768 9.16164 27.9267C8.93996 28.2766 9.0439 28.74 9.3938 28.9616L10.1966 27.6945ZM10.8659 28.6388L10.865 29.3888H10.8659V28.6388ZM30.1511 28.6388V29.3888H30.152L30.1511 28.6388ZM31.6232 28.9616C31.9731 28.74 32.0771 28.2766 31.8554 27.9267C31.6337 27.5768 31.1704 27.4729 30.8205 27.6945L31.6232 28.9616ZM9.38265 28.9544C9.72857 29.1823 10.1937 29.0865 10.4215 28.7406C10.6494 28.3947 10.5537 27.9296 10.2077 27.7017L9.38265 28.9544ZM8.72445 26.3126L9.47445 26.3252V26.3126H8.72445ZM9.47445 17.5065C9.47445 17.0923 9.13866 16.7565 8.72445 16.7565C8.31023 16.7565 7.97445 17.0923 7.97445 17.5065H9.47445ZM28.7596 28.6388C28.7596 28.2246 28.4238 27.8888 28.0096 27.8888C27.5954 27.8888 27.2596 28.2246 27.2596 28.6388H28.7596ZM28.0096 30.3834L28.756 30.4569C28.7584 30.4325 28.7596 30.4079 28.7596 30.3834H28.0096ZM28.7646 31.8911L28.3725 32.5304L28.7646 31.8911ZM30.4686 31.8911L30.8606 32.5304L30.4686 31.8911ZM31.2235 30.3834H30.4735C30.4735 30.4079 30.4747 30.4325 30.4771 30.4569L31.2235 30.3834ZM31.9735 28.3281C31.9735 27.9139 31.6377 27.5781 31.2235 27.5781C30.8093 27.5781 30.4735 27.9139 30.4735 28.3281H31.9735ZM30.811 27.7017C30.4651 27.9296 30.3693 28.3947 30.5972 28.7406C30.825 29.0865 31.2901 29.1823 31.6361 28.9544L30.811 27.7017ZM32.2943 26.3126H31.5442L31.5444 26.3252L32.2943 26.3126ZM33.0443 17.5065C33.0443 17.0923 32.7085 16.7565 32.2943 16.7565C31.8801 16.7565 31.5443 17.0923 31.5443 17.5065H33.0443ZM12.6522 22.0734C12.238 22.0734 11.9022 22.4092 11.9022 22.8234C11.9022 23.2377 12.238 23.5734 12.6522 23.5734V22.0734ZM13.962 23.5734C14.3762 23.5734 14.712 23.2377 14.712 22.8234C14.712 22.4092 14.3762 22.0734 13.962 22.0734V23.5734ZM27.0567 22.0734C26.6425 22.0734 26.3067 22.4092 26.3067 22.8234C26.3067 23.2377 26.6425 23.5734 27.0567 23.5734V22.0734ZM28.3665 23.5734C28.7807 23.5734 29.1165 23.2377 29.1165 22.8234C29.1165 22.4092 28.7807 22.0734 28.3665 22.0734V23.5734ZM31.5441 17.5065C31.5441 17.9208 31.8799 18.2565 32.2941 18.2565C32.7083 18.2565 33.0441 17.9208 33.0441 17.5065H31.5441ZM32.2941 9.53122H33.0441V9.53105L32.2941 9.53122ZM31.9574 8.28839L31.3007 8.6507C31.3036 8.65592 31.3066 8.66111 31.3096 8.66627L31.9574 8.28839ZM30.151 7.20508L30.1657 6.45522C30.1608 6.45513 30.1559 6.45508 30.151 6.45508V7.20508ZM10.8675 7.20508V6.45508C10.8626 6.45508 10.8577 6.45513 10.8528 6.45522L10.8675 7.20508ZM9.06103 8.28839L9.70888 8.66627C9.71188 8.66111 9.71483 8.65592 9.71771 8.6507L9.06103 8.28839ZM8.72431 9.53122L7.97431 9.53105V9.53122H8.72431ZM7.97431 17.5065C7.97431 17.9208 8.3101 18.2565 8.72431 18.2565C9.13853 18.2565 9.47431 17.9208 9.47431 17.5065H7.97431ZM32.2943 18.2566C32.7085 18.2566 33.0443 17.9208 33.0443 17.5066C33.0443 17.0923 32.7085 16.7566 32.2943 16.7566V18.2566ZM8.72445 16.7566C8.31023 16.7566 7.97445 17.0923 7.97445 17.5066C7.97445 17.9208 8.31023 18.2566 8.72445 18.2566V16.7566ZM12.2591 28.6388V30.3834H13.7591V28.6388H12.2591ZM12.2599 30.4176C12.2826 30.9145 11.8927 31.3525 11.3655 31.3789L11.4405 32.8771C12.7741 32.8103 13.8195 31.6894 13.7583 30.3492L12.2599 30.4176ZM11.4398 31.3789C10.9121 31.353 10.5217 30.9147 10.5444 30.4176L9.04597 30.3492C8.9848 31.6903 10.0316 32.8116 11.3662 32.8771L11.4398 31.3789ZM10.5452 30.3834V28.3281H9.04519V30.3834H10.5452ZM9.3938 28.9616C9.83358 29.2403 10.3441 29.3882 10.865 29.3888L10.8668 27.8888C10.6284 27.8885 10.3958 27.8207 10.1966 27.6945L9.3938 28.9616ZM10.8659 29.3888H30.1511V27.8888H10.8659V29.3888ZM30.152 29.3888C30.6729 29.3882 31.1834 29.2403 31.6232 28.9616L30.8205 27.6945C30.6212 27.8207 30.3886 27.8885 30.1502 27.8888L30.152 29.3888ZM10.2077 27.7017C9.73881 27.3929 9.46519 26.8734 9.47434 26.3252L7.97455 26.3001C7.95673 27.3674 8.48979 28.3664 9.38265 28.9544L10.2077 27.7017ZM9.47445 26.3126V17.5065H7.97445V26.3126H9.47445ZM27.2596 28.6388V30.3834H28.7596V28.6388H27.2596ZM27.2632 30.3099C27.1753 31.2026 27.6088 32.0622 28.3725 32.5304L29.1566 31.2517C28.8768 31.0801 28.7251 30.7709 28.756 30.4569L27.2632 30.3099ZM28.3725 32.5304C29.1348 32.9978 30.0983 32.9978 30.8606 32.5304L30.0765 31.2517C29.7953 31.4241 29.4378 31.4241 29.1566 31.2517L28.3725 32.5304ZM30.8606 32.5304C31.6243 32.0622 32.0578 31.2026 31.9699 30.3099L30.4771 30.4569C30.5081 30.7709 30.3564 31.0801 30.0765 31.2517L30.8606 32.5304ZM31.9735 30.3834V28.3281H30.4735V30.3834H31.9735ZM31.6361 28.9544C32.5289 28.3664 33.062 27.3674 33.0442 26.3001L31.5444 26.3252C31.5535 26.8734 31.2799 27.3929 30.811 27.7017L31.6361 28.9544ZM33.0443 26.3126V17.5065H31.5443V26.3126H33.0443ZM12.6522 23.5734H13.962V22.0734H12.6522V23.5734ZM27.0567 23.5734H28.3665V22.0734H27.0567V23.5734ZM33.0441 17.5065V9.53122H31.5441V17.5065H33.0441ZM33.0441 9.53105C33.044 8.96165 32.8924 8.40282 32.6053 7.91052L31.3096 8.66627C31.4634 8.93008 31.5441 9.22835 31.5441 9.53139L33.0441 9.53105ZM32.6141 7.92609C32.1217 7.03355 31.1857 6.47521 30.1657 6.45522L30.1363 7.95493C30.6274 7.96456 31.0704 8.2332 31.3007 8.6507L32.6141 7.92609ZM30.151 6.45508H10.8675V7.95508H30.151V6.45508ZM10.8528 6.45522C9.83275 6.47521 8.89677 7.03355 8.40434 7.92609L9.71771 8.6507C9.94805 8.2332 10.3911 7.96456 10.8822 7.95493L10.8528 6.45522ZM8.41317 7.91052C8.12603 8.40282 7.97444 8.96165 7.97431 9.53105L9.47431 9.53138C9.47438 9.22835 9.555 8.93008 9.70888 8.66627L8.41317 7.91052ZM7.97431 9.53122V17.5065H9.47431V9.53122H7.97431ZM32.2943 16.7566H8.72445V18.2566H32.2943V16.7566Z" fill="white"/>
</svg>
