<svg width="29" height="25" viewBox="0 0 29 25" fill="none" xmlns="http://www.w3.org/2000/svg">
<path d="M10.1234 17.0089C10.1234 16.5947 9.78759 16.2589 9.37338 16.2589C8.95916 16.2589 8.62338 16.5947 8.62338 17.0089H10.1234ZM9.37338 18.0589H8.62338C8.62338 18.072 8.62372 18.0852 8.62441 18.0983L9.37338 18.0589ZM8.25885 19.1089L8.22694 19.8582C8.24841 19.8591 8.26992 19.8591 8.29139 19.8582L8.25885 19.1089ZM7.14315 18.0589L7.89211 18.0983C7.8928 18.0852 7.89315 18.072 7.89315 18.0589H7.14315ZM7.89315 16.8219C7.89315 16.4077 7.55736 16.0719 7.14315 16.0719C6.72894 16.0719 6.39315 16.4077 6.39315 16.8219H7.89315ZM7.50433 16.1646C7.14131 15.9651 6.68532 16.0977 6.48585 16.4607C6.28637 16.8237 6.41895 17.2797 6.78197 17.4792L7.50433 16.1646ZM7.88617 17.0089L7.88538 17.7589H7.88617V17.0089ZM21.2687 17.0089L21.2687 17.7589L21.2695 17.7589L21.2687 17.0089ZM22.3729 17.4792C22.7359 17.2797 22.8685 16.8237 22.669 16.4607C22.4695 16.0977 22.0136 15.9651 21.6505 16.1646L22.3729 17.4792ZM6.77113 17.4731C7.1308 17.6786 7.58892 17.5536 7.79438 17.1939C7.99984 16.8342 7.87483 16.3761 7.51517 16.1707L6.77113 17.4731ZM6.40013 15.6089L7.14999 15.6233C7.15008 15.6185 7.15013 15.6137 7.15013 15.6089L6.40013 15.6089ZM7.15013 10.3089C7.15013 9.89467 6.81434 9.55889 6.40013 9.55889C5.98592 9.55889 5.65013 9.89467 5.65013 10.3089H7.15013ZM20.5327 17.0089C20.5327 16.5947 20.1969 16.2589 19.7827 16.2589C19.3684 16.2589 19.0327 16.5947 19.0327 17.0089H20.5327ZM19.7827 18.0589L20.5279 18.1435C20.5311 18.1154 20.5327 18.0872 20.5327 18.0589H19.7827ZM20.3065 18.9663L19.9544 19.6285L19.9544 19.6285L20.3065 18.9663ZM21.489 18.9663L21.8411 19.6285L21.8411 19.6285L21.489 18.9663ZM22.0129 18.0589H21.2629C21.2629 18.0872 21.2645 18.1154 21.2677 18.1435L22.0129 18.0589ZM22.7629 16.8219C22.7629 16.4077 22.4271 16.0719 22.0129 16.0719C21.5987 16.0719 21.2629 16.4077 21.2629 16.8219H22.7629ZM21.6409 16.1707C21.2812 16.3761 21.1562 16.8342 21.3616 17.1939C21.5671 17.5536 22.0252 17.6786 22.3849 17.4731L21.6409 16.1707ZM22.7559 15.6089H22.0059C22.0059 15.6137 22.0059 15.6185 22.006 15.6233L22.7559 15.6089ZM23.5059 10.3089C23.5059 9.89467 23.1701 9.55889 22.7559 9.55889C22.3417 9.55889 22.0059 9.89467 22.0059 10.3089H23.5059ZM9.1257 12.7589C8.71149 12.7589 8.3757 13.0947 8.3757 13.5089C8.3757 13.9231 8.71149 14.2589 9.1257 14.2589V12.7589ZM10.0346 14.2589C10.4488 14.2589 10.7846 13.9231 10.7846 13.5089C10.7846 13.0947 10.4488 12.7589 10.0346 12.7589V14.2589ZM19.1214 12.7589C18.7072 12.7589 18.3714 13.0947 18.3714 13.5089C18.3714 13.9231 18.7072 14.2589 19.1214 14.2589V12.7589ZM20.0303 14.2589C20.4445 14.2589 20.7803 13.9231 20.7803 13.5089C20.7803 13.0947 20.4445 12.7589 20.0303 12.7589V14.2589ZM22.0059 10.3089C22.0059 10.7231 22.3417 11.0589 22.7559 11.0589C23.1701 11.0589 23.5059 10.7231 23.5059 10.3089H22.0059ZM22.7559 5.50889L23.5059 5.50889L23.5059 5.50869L22.7559 5.50889ZM22.5222 4.76089L21.8894 5.16343C21.8928 5.16881 21.8963 5.17414 21.8999 5.17942L22.5222 4.76089ZM21.2687 4.10889L21.2814 3.35889H21.2687V4.10889ZM7.8873 4.10889L7.8873 3.35878L7.87456 3.35899L7.8873 4.10889ZM6.63375 4.76089L7.25611 5.17942C7.25966 5.17414 7.26315 5.16881 7.26657 5.16343L6.63375 4.76089ZM6.4001 5.50889L5.6501 5.50869V5.50889H6.4001ZM5.6501 10.3089C5.6501 10.7231 5.98588 11.0589 6.4001 11.0589C6.81431 11.0589 7.1501 10.7231 7.1501 10.3089H5.6501ZM22.7559 11.0589C23.1701 11.0589 23.5059 10.7231 23.5059 10.3089C23.5059 9.89467 23.1701 9.55889 22.7559 9.55889V11.0589ZM6.4001 9.55889C5.98588 9.55889 5.6501 9.89467 5.6501 10.3089C5.6501 10.7231 5.98588 11.0589 6.4001 11.0589V9.55889ZM8.62338 17.0089V18.0589H10.1234V17.0089H8.62338ZM8.62441 18.0983C8.62592 18.127 8.6173 18.176 8.55486 18.2348C8.49043 18.2955 8.37799 18.353 8.2263 18.3596L8.29139 19.8582C9.23898 19.817 10.1789 19.0946 10.1223 18.0195L8.62441 18.0983ZM8.29075 18.3596C8.13894 18.3531 8.02634 18.2956 7.9618 18.2348C7.89924 18.176 7.89061 18.1269 7.89211 18.0983L6.39418 18.0195C6.3376 19.0954 7.27879 19.8178 8.22694 19.8582L8.29075 18.3596ZM7.89315 18.0589V16.8219H6.39315V18.0589H7.89315ZM6.78197 17.4792C7.11877 17.6643 7.50133 17.7585 7.88538 17.7589L7.88696 16.2589C7.74409 16.2587 7.61095 16.2232 7.50433 16.1646L6.78197 17.4792ZM7.88617 17.7589H21.2687V16.2589H7.88617V17.7589ZM21.2695 17.7589C21.6535 17.7585 22.0361 17.6643 22.3729 17.4792L21.6505 16.1646C21.5439 16.2232 21.4108 16.2587 21.2679 16.2589L21.2695 17.7589ZM7.51517 16.1707C7.24631 16.0171 7.14664 15.7975 7.14999 15.6233L5.65027 15.5945C5.63491 16.3926 6.09501 17.0869 6.77113 17.4731L7.51517 16.1707ZM7.15013 15.6089V10.3089H5.65013V15.6089H7.15013ZM19.0327 17.0089V18.0589H20.5327V17.0089H19.0327ZM19.0374 17.9742C18.9563 18.6891 19.3634 19.3142 19.9544 19.6285L20.6587 18.3041C20.5932 18.2693 20.5588 18.2292 20.5429 18.2016C20.5277 18.1754 20.5264 18.1568 20.5279 18.1435L19.0374 17.9742ZM19.9544 19.6285C20.5366 19.9381 21.2589 19.9381 21.8411 19.6285L21.1369 18.3041C20.995 18.3795 20.8006 18.3795 20.6587 18.3041L19.9544 19.6285ZM21.8411 19.6285C22.4322 19.3142 22.8393 18.6891 22.7581 17.9742L21.2677 18.1435C21.2692 18.1568 21.2678 18.1754 21.2527 18.2016C21.2367 18.2292 21.2023 18.2693 21.1369 18.3041L21.8411 19.6285ZM22.7629 18.0589V16.8219H21.2629V18.0589H22.7629ZM22.3849 17.4731C23.061 17.0869 23.5211 16.3926 23.5058 15.5945L22.006 15.6233C22.0094 15.7975 21.9097 16.0171 21.6409 16.1707L22.3849 17.4731ZM23.5059 15.6089V10.3089H22.0059V15.6089H23.5059ZM9.1257 14.2589H10.0346V12.7589H9.1257V14.2589ZM19.1214 14.2589H20.0303V12.7589H19.1214V14.2589ZM23.5059 10.3089V5.50889H22.0059V10.3089H23.5059ZM23.5059 5.50869C23.5058 5.09027 23.3768 4.68775 23.1446 4.34235L21.8999 5.17942C21.9736 5.2891 22.0058 5.40242 22.0059 5.50908L23.5059 5.50869ZM23.155 4.35834C22.7507 3.72269 22.0214 3.37157 21.2814 3.35899L21.2559 4.85878C21.5645 4.86402 21.7922 5.01063 21.8894 5.16343L23.155 4.35834ZM21.2687 3.35889H7.8873V4.85889H21.2687V3.35889ZM7.87456 3.35899C7.13455 3.37157 6.40529 3.72269 6.00093 4.35834L7.26657 5.16343C7.36377 5.01063 7.59144 4.86402 7.90005 4.85878L7.87456 3.35899ZM6.01139 4.34235C5.77912 4.68775 5.65021 5.09027 5.6501 5.50869L7.1501 5.50908C7.15012 5.40242 7.18235 5.2891 7.25611 5.17942L6.01139 4.34235ZM5.6501 5.50889V10.3089H7.1501V5.50889H5.6501ZM22.7559 9.55889H6.4001V11.0589H22.7559V9.55889Z" fill="white"/>
</svg>
