<svg width="35" height="48" viewBox="0 0 35 48" fill="none" xmlns="http://www.w3.org/2000/svg">
<path d="M12.3579 33.5364C12.3579 33.1222 12.0222 32.7864 11.6079 32.7864C11.1937 32.7864 10.8579 33.1222 10.8579 33.5364H12.3579ZM11.6079 35.5896H10.8579C10.8579 35.5979 10.8581 35.6062 10.8583 35.6145L11.6079 35.5896ZM10.2366 37.6429L10.1859 38.3912C10.22 38.3935 10.2542 38.3935 10.2882 38.3911L10.2366 37.6429ZM8.86375 35.5896L9.61334 35.6144C9.61361 35.6062 9.61375 35.5979 9.61375 35.5896H8.86375ZM9.61375 33.1707C9.61375 32.7565 9.27796 32.4207 8.86375 32.4207C8.44953 32.4207 8.11375 32.7565 8.11375 33.1707H9.61375ZM9.35707 32.6058C9.04508 32.3333 8.57129 32.3654 8.29883 32.6774C8.02638 32.9894 8.05843 33.4632 8.37042 33.7356L9.35707 32.6058ZM9.778 33.5364L9.77674 34.2864H9.778V33.5364ZM26.2446 33.5364L26.2446 34.2864L26.2458 34.2864L26.2446 33.5364ZM27.6521 33.7356C27.9641 33.4632 27.9962 32.9894 27.7237 32.6774C27.4513 32.3654 26.9775 32.3333 26.6655 32.6058L27.6521 33.7356ZM8.35962 33.726C8.6663 34.0044 9.14062 33.9815 9.41904 33.6748C9.69747 33.3681 9.67456 32.8938 9.36788 32.6154L8.35962 33.726ZM7.9495 30.7987L8.6995 30.8078V30.7987H7.9495ZM8.6995 20.4346C8.6995 20.0204 8.36371 19.6846 7.9495 19.6846C7.53529 19.6846 7.1995 20.0204 7.1995 20.4346H8.6995ZM25.1661 33.5364C25.1661 33.1222 24.8303 32.7864 24.4161 32.7864C24.0018 32.7864 23.6661 33.1222 23.6661 33.5364H25.1661ZM24.4161 35.5896L25.1642 35.6431C25.1654 35.6253 25.1661 35.6075 25.1661 35.5896H24.4161ZM25.0607 37.364L24.5766 37.9369L24.5766 37.9369L25.0607 37.364ZM26.5156 37.364L26.9998 37.9369L26.9998 37.9369L26.5156 37.364ZM27.1603 35.5896H26.4103C26.4103 35.6075 26.4109 35.6253 26.4122 35.6431L27.1603 35.5896ZM27.9103 33.1707C27.9103 32.7565 27.5745 32.4207 27.1603 32.4207C26.746 32.4207 26.4103 32.7565 26.4103 33.1707H27.9103ZM26.6561 32.6154C26.3494 32.8938 26.3265 33.3681 26.605 33.6748C26.8834 33.9815 27.3577 34.0044 27.6644 33.726L26.6561 32.6154ZM28.0745 30.7987H27.3244L27.3246 30.8078L28.0745 30.7987ZM28.8245 20.4346C28.8245 20.0204 28.4887 19.6846 28.0745 19.6846C27.6603 19.6846 27.3245 20.0204 27.3245 20.4346H28.8245ZM11.3032 25.9422C10.889 25.9422 10.5532 26.2779 10.5532 26.6922C10.5532 27.1064 10.889 27.4422 11.3032 27.4422V25.9422ZM12.4216 27.4422C12.8358 27.4422 13.1716 27.1064 13.1716 26.6922C13.1716 26.2779 12.8358 25.9422 12.4216 25.9422V27.4422ZM23.6024 25.9422C23.1882 25.9422 22.8524 26.2779 22.8524 26.6922C22.8524 27.1064 23.1882 27.4422 23.6024 27.4422V25.9422ZM24.7208 27.4422C25.135 27.4422 25.4708 27.1064 25.4708 26.6922C25.4708 26.2779 25.135 25.9422 24.7208 25.9422V27.4422ZM27.3244 20.4346C27.3244 20.8488 27.6602 21.1846 28.0744 21.1846C28.4886 21.1846 28.8244 20.8488 28.8244 20.4346H27.3244ZM28.0744 11.0482L28.8244 11.0482L28.8244 11.0481L28.0744 11.0482ZM27.7869 9.58553L27.0906 9.86423C27.0924 9.86877 27.0943 9.8733 27.0962 9.87781L27.7869 9.58553ZM26.2445 8.31055L26.2647 7.56082C26.258 7.56064 26.2512 7.56055 26.2445 7.56055L26.2445 8.31055ZM9.77935 8.31055V7.56055C9.7726 7.56055 9.76585 7.56064 9.7591 7.56082L9.77935 8.31055ZM8.23691 9.58553L8.92762 9.8778C8.92953 9.8733 8.93139 9.86877 8.93321 9.86423L8.23691 9.58553ZM7.94941 11.0482L7.19941 11.0481V11.0482H7.94941ZM7.19941 20.4346C7.19941 20.8488 7.5352 21.1846 7.94941 21.1846C8.36363 21.1846 8.69941 20.8488 8.69941 20.4346H7.19941ZM28.0745 21.1846C28.4887 21.1846 28.8245 20.8488 28.8245 20.4346C28.8245 20.0204 28.4887 19.6846 28.0745 19.6846V21.1846ZM7.9495 19.6846C7.53529 19.6846 7.1995 20.0204 7.1995 20.4346C7.1995 20.8488 7.53529 21.1846 7.9495 21.1846V19.6846ZM10.8579 33.5364V35.5896H12.3579V33.5364H10.8579ZM10.8583 35.6145C10.8715 36.0121 10.7635 36.3546 10.6099 36.5845C10.4549 36.8166 10.2925 36.8873 10.1849 36.8947L10.2882 38.3911C10.975 38.3437 11.5163 37.9282 11.8573 37.4176C12.1997 36.9049 12.3802 36.2482 12.3575 35.5648L10.8583 35.6145ZM10.2872 36.8946C10.1796 36.8873 10.0172 36.817 9.86208 36.5849C9.70836 36.355 9.60017 36.0124 9.61334 35.6144L8.11416 35.5648C8.09153 36.2487 8.27223 36.9058 8.61511 37.4186C8.95656 37.9293 9.4985 38.3447 10.1859 38.3912L10.2872 36.8946ZM9.61375 35.5896V33.1707H8.11375V35.5896H9.61375ZM8.37042 33.7356C8.76242 34.0779 9.25008 34.2855 9.77674 34.2864L9.77926 32.7864C9.65757 32.7862 9.51068 32.7399 9.35707 32.6058L8.37042 33.7356ZM9.778 34.2864H26.2446V32.7864H9.778V34.2864ZM26.2458 34.2864C26.7725 34.2855 27.2601 34.0779 27.6521 33.7356L26.6655 32.6058C26.5119 32.7399 26.365 32.7862 26.2433 32.7864L26.2458 34.2864ZM9.36788 32.6154C8.97858 32.262 8.68993 31.5931 8.69944 30.8078L7.19955 30.7896C7.18604 31.9057 7.58617 33.0238 8.35962 33.726L9.36788 32.6154ZM8.6995 30.7987V20.4346H7.1995V30.7987H8.6995ZM23.6661 33.5364V35.5896H25.1661V33.5364H23.6661ZM23.668 35.5362C23.6044 36.426 23.907 37.371 24.5766 37.9369L25.5448 36.7912C25.3233 36.604 25.1263 36.1735 25.1642 35.6431L23.668 35.5362ZM24.5766 37.9369C25.3016 38.5496 26.2747 38.5496 26.9998 37.9369L26.0315 36.7912C25.8655 36.9315 25.7108 36.9315 25.5448 36.7912L24.5766 37.9369ZM26.9998 37.9369C27.6693 37.371 27.9719 36.426 27.9083 35.5362L26.4122 35.6431C26.4501 36.1735 26.253 36.604 26.0315 36.7912L26.9998 37.9369ZM27.9103 35.5896V33.1707H26.4103V35.5896H27.9103ZM27.6644 33.726C28.4378 33.0238 28.838 31.9057 28.8244 30.7896L27.3246 30.8078C27.3341 31.5931 27.0454 32.262 26.6561 32.6154L27.6644 33.726ZM28.8245 30.7987V20.4346H27.3245V30.7987H28.8245ZM11.3032 27.4422H12.4216V25.9422H11.3032V27.4422ZM23.6024 27.4422H24.7208V25.9422H23.6024V27.4422ZM28.8244 20.4346V11.0482H27.3244V20.4346H28.8244ZM28.8244 11.0481C28.8243 10.4407 28.7074 9.83632 28.4776 9.29325L27.0962 9.87781C27.243 10.2246 27.3243 10.629 27.3244 11.0484L28.8244 11.0481ZM28.4832 9.30683C28.1023 8.35505 27.3011 7.58881 26.2647 7.56082L26.2242 9.06027C26.4781 9.06713 26.8544 9.27418 27.0906 9.86423L28.4832 9.30683ZM26.2445 7.56055H9.77935V9.06055H26.2445V7.56055ZM9.7591 7.56082C8.72273 7.58881 7.92158 8.35505 7.54062 9.30683L8.93321 9.86423C9.16938 9.27418 9.5457 9.06713 9.7996 9.06027L9.7591 7.56082ZM7.54621 9.29325C7.3164 9.83632 7.19951 10.4407 7.19941 11.0481L8.69941 11.0484C8.69948 10.629 8.78086 10.2246 8.92762 9.8778L7.54621 9.29325ZM7.19941 11.0482V20.4346H8.69941V11.0482H7.19941ZM28.0745 19.6846H7.9495V21.1846H28.0745V19.6846Z" fill="white"/>
</svg>
