<svg width="24" height="25" viewBox="0 0 24 25" fill="none" xmlns="http://www.w3.org/2000/svg">
<path d="M8.47732 17.0089C8.47732 16.5947 8.14154 16.2589 7.72732 16.2589C7.31311 16.2589 6.97732 16.5947 6.97732 17.0089H8.47732ZM7.72732 18.0589H6.97732C6.97732 18.0701 6.97758 18.0814 6.97808 18.0927L7.72732 18.0589ZM6.77332 19.1089L6.73606 19.858C6.76114 19.8592 6.78626 19.8592 6.81133 19.8579L6.77332 19.1089ZM5.81832 18.0589L6.56756 18.0926C6.56807 18.0814 6.56832 18.0701 6.56832 18.0589H5.81832ZM6.56832 16.8219C6.56832 16.4077 6.23254 16.0719 5.81832 16.0719C5.40411 16.0719 5.06832 16.4077 5.06832 16.8219H6.56832ZM6.22349 16.1907C5.87492 15.967 5.41095 16.0682 5.18718 16.4167C4.96341 16.7653 5.06459 17.2293 5.41316 17.453L6.22349 16.1907ZM6.45432 17.0089L6.4534 17.7589H6.45432V17.0089ZM17.9093 17.0089V17.7589L17.9102 17.7589L17.9093 17.0089ZM18.9505 17.453C19.2991 17.2293 19.4002 16.7653 19.1765 16.4167C18.9527 16.0682 18.4887 15.967 18.1402 16.1907L18.9505 17.453ZM5.40199 17.4457C5.74653 17.6757 6.21222 17.5828 6.44216 17.2382C6.67209 16.8937 6.57919 16.428 6.23466 16.1981L5.40199 17.4457ZM5.18232 15.6089L5.93232 15.6212V15.6089H5.18232ZM5.93232 10.3089C5.93232 9.89467 5.59654 9.55889 5.18232 9.55889C4.76811 9.55889 4.43232 9.89467 4.43232 10.3089H5.93232ZM17.3873 17.0089C17.3873 16.5947 17.0515 16.2589 16.6373 16.2589C16.2231 16.2589 15.8873 16.5947 15.8873 17.0089H17.3873ZM16.6373 18.0589L17.3838 18.1315C17.3861 18.1073 17.3873 18.0831 17.3873 18.0589H16.6373ZM17.0857 18.9663L16.69 19.6033V19.6033L17.0857 18.9663ZM18.0979 18.9663L18.4937 19.6033L18.0979 18.9663ZM18.5463 18.0589H17.7963C17.7963 18.0831 17.7975 18.1073 17.7998 18.1315L18.5463 18.0589ZM19.2963 16.8219C19.2963 16.4077 18.9605 16.0719 18.5463 16.0719C18.1321 16.0719 17.7963 16.4077 17.7963 16.8219H19.2963ZM18.13 16.1981C17.7855 16.428 17.6926 16.8937 17.9225 17.2382C18.1524 17.5828 18.6181 17.6757 18.9627 17.4457L18.13 16.1981ZM19.1823 15.6089H18.4322L18.4324 15.6212L19.1823 15.6089ZM19.9323 10.3089C19.9323 9.89467 19.5965 9.55889 19.1823 9.55889C18.7681 9.55889 18.4323 9.89467 18.4323 10.3089H19.9323ZM7.51532 12.7589C7.10111 12.7589 6.76532 13.0947 6.76532 13.5089C6.76532 13.9231 7.10111 14.2589 7.51532 14.2589V12.7589ZM8.29332 14.2589C8.70754 14.2589 9.04332 13.9231 9.04332 13.5089C9.04332 13.0947 8.70754 12.7589 8.29332 12.7589V14.2589ZM16.0713 12.7589C15.6571 12.7589 15.3213 13.0947 15.3213 13.5089C15.3213 13.9231 15.6571 14.2589 16.0713 14.2589V12.7589ZM16.8493 14.2589C17.2635 14.2589 17.5993 13.9231 17.5993 13.5089C17.5993 13.0947 17.2635 12.7589 16.8493 12.7589V14.2589ZM18.4323 10.3089C18.4323 10.7231 18.7681 11.0589 19.1823 11.0589C19.5965 11.0589 19.9323 10.7231 19.9323 10.3089H18.4323ZM19.1823 5.50889H19.9323V5.50872L19.1823 5.50889ZM18.9823 4.76089L18.3236 5.11954C18.3265 5.12474 18.3294 5.12992 18.3323 5.13505L18.9823 4.76089ZM17.9093 4.10889L17.9242 3.35903C17.9192 3.35894 17.9143 3.35889 17.9093 3.35889V4.10889ZM6.45532 4.10889V3.35889C6.45036 3.35889 6.4454 3.35894 6.44044 3.35903L6.45532 4.10889ZM5.38232 4.76089L6.03232 5.13505C6.03528 5.12992 6.03818 5.12474 6.04101 5.11954L5.38232 4.76089ZM5.18232 5.50889L4.43232 5.50872V5.50889H5.18232ZM4.43232 10.3089C4.43232 10.7231 4.76811 11.0589 5.18232 11.0589C5.59654 11.0589 5.93232 10.7231 5.93232 10.3089H4.43232ZM19.1823 11.0589C19.5965 11.0589 19.9323 10.7231 19.9323 10.3089C19.9323 9.89467 19.5965 9.55889 19.1823 9.55889V11.0589ZM5.18232 9.55889C4.76811 9.55889 4.43232 9.89467 4.43232 10.3089C4.43232 10.7231 4.76811 11.0589 5.18232 11.0589V9.55889ZM6.97732 17.0089V18.0589H8.47732V17.0089H6.97732ZM6.97808 18.0927C6.98442 18.2333 6.87596 18.3527 6.73532 18.3599L6.81133 19.8579C7.77602 19.809 8.52005 18.9901 8.47656 18.0251L6.97808 18.0927ZM6.81059 18.3598C6.66985 18.3528 6.56123 18.2334 6.56756 18.0926L5.06908 18.0252C5.02561 18.9908 5.77068 19.8099 6.73606 19.858L6.81059 18.3598ZM6.56832 18.0589V16.8219H5.06832V18.0589H6.56832ZM5.41316 17.453C5.72355 17.6523 6.08455 17.7584 6.4534 17.7589L6.45525 16.2589C6.37307 16.2588 6.29264 16.2351 6.22349 16.1907L5.41316 17.453ZM6.45432 17.7589H17.9093V16.2589H6.45432V17.7589ZM17.9102 17.7589C18.2791 17.7584 18.6401 17.6523 18.9505 17.453L18.1402 16.1907C18.071 16.2351 17.9906 16.2588 17.9084 16.2589L17.9102 17.7589ZM6.23466 16.1981C6.04234 16.0697 5.92841 15.8524 5.93222 15.6212L4.43243 15.5965C4.42021 16.3377 4.78544 17.0342 5.40199 17.4457L6.23466 16.1981ZM5.93232 15.6089V10.3089H4.43232V15.6089H5.93232ZM15.8873 17.0089V18.0589H17.3873V17.0089H15.8873ZM15.8908 17.9863C15.8279 18.6335 16.1377 19.2602 16.69 19.6033L17.4815 18.3292C17.414 18.2873 17.3761 18.2106 17.3838 18.1315L15.8908 17.9863ZM16.69 19.6033C17.2423 19.9465 17.9414 19.9465 18.4937 19.6033L17.7021 18.3292C17.6346 18.3712 17.5491 18.3712 17.4815 18.3292L16.69 19.6033ZM18.4937 19.6033C19.046 19.2602 19.3557 18.6335 19.2928 17.9863L17.7998 18.1315C17.8075 18.2106 17.7697 18.2873 17.7021 18.3292L18.4937 19.6033ZM19.2963 18.0589V16.8219H17.7963V18.0589H19.2963ZM18.9627 17.4457C19.5792 17.0342 19.9444 16.3377 19.9322 15.5965L18.4324 15.6212C18.4362 15.8524 18.3223 16.0697 18.13 16.1981L18.9627 17.4457ZM19.9323 15.6089V10.3089H18.4323V15.6089H19.9323ZM7.51532 14.2589H8.29332V12.7589H7.51532V14.2589ZM16.0713 14.2589H16.8493V12.7589H16.0713V14.2589ZM19.9323 10.3089V5.50889H18.4323V10.3089H19.9323ZM19.9323 5.50872C19.9322 5.11491 19.8288 4.72802 19.6323 4.38672L18.3323 5.13505C18.3978 5.24882 18.4323 5.37778 18.4323 5.50905L19.9323 5.50872ZM19.641 4.40224C19.2976 3.77147 18.6423 3.37329 17.9242 3.35903L17.8944 4.85874C18.074 4.8623 18.2378 4.96185 18.3236 5.11954L19.641 4.40224ZM17.9093 3.35889H6.45532V4.85889H17.9093V3.35889ZM6.44044 3.35903C5.72237 3.37329 5.06708 3.77147 4.72364 4.40223L6.04101 5.11954C6.12687 4.96185 6.29069 4.8623 6.47021 4.85874L6.44044 3.35903ZM4.73232 4.38672C4.53586 4.72802 4.43241 5.11491 4.43232 5.50872L5.93232 5.50905C5.93235 5.37778 5.96683 5.24882 6.03232 5.13505L4.73232 4.38672ZM4.43232 5.50889V10.3089H5.93232V5.50889H4.43232ZM19.1823 9.55889H5.18232V11.0589H19.1823V9.55889Z" fill="white"/>
</svg>
