<svg width="16" height="17" viewBox="0 0 16 17" fill="none" xmlns="http://www.w3.org/2000/svg">
<path d="M8 2.35889C8.41421 2.35889 8.75 2.0231 8.75 1.60889C8.75 1.19467 8.41421 0.858887 8 0.858887V2.35889ZM15.75 8.60889C15.75 8.19467 15.4142 7.85889 15 7.85889C14.5858 7.85889 14.25 8.19467 14.25 8.60889H15.75ZM15 2.35889C15.4142 2.35889 15.75 2.0231 15.75 1.60889C15.75 1.19467 15.4142 0.858887 15 0.858887V2.35889ZM10.912 0.858887C10.4978 0.858887 10.162 1.19467 10.162 1.60889C10.162 2.0231 10.4978 2.35889 10.912 2.35889V0.858887ZM15.75 1.60889C15.75 1.19467 15.4142 0.858887 15 0.858887C14.5858 0.858887 14.25 1.19467 14.25 1.60889H15.75ZM14.25 5.74989C14.25 6.1641 14.5858 6.49989 15 6.49989C15.4142 6.49989 15.75 6.1641 15.75 5.74989H14.25ZM15.5303 2.13922C15.8232 1.84632 15.8232 1.37145 15.5303 1.07856C15.2374 0.785663 14.7626 0.785663 14.4697 1.07856L15.5303 2.13922ZM7.46967 8.07856C7.17678 8.37145 7.17678 8.84632 7.46967 9.13922C7.76256 9.43211 8.23744 9.43211 8.53033 9.13922L7.46967 8.07856ZM8 0.858887H5V2.35889H8V0.858887ZM5 0.858887C2.37665 0.858887 0.25 2.98553 0.25 5.60889H1.75C1.75 3.81396 3.20507 2.35889 5 2.35889V0.858887ZM0.25 5.60889V11.6089H1.75V5.60889H0.25ZM0.25 11.6089C0.25 14.2322 2.37665 16.3589 5 16.3589V14.8589C3.20507 14.8589 1.75 13.4038 1.75 11.6089H0.25ZM5 16.3589H11V14.8589H5V16.3589ZM11 16.3589C13.6234 16.3589 15.75 14.2322 15.75 11.6089H14.25C14.25 13.4038 12.7949 14.8589 11 14.8589V16.3589ZM15.75 11.6089V8.60889H14.25V11.6089H15.75ZM15 0.858887H10.912V2.35889H15V0.858887ZM14.25 1.60889V5.74989H15.75V1.60889H14.25ZM14.4697 1.07856L7.46967 8.07856L8.53033 9.13922L15.5303 2.13922L14.4697 1.07856Z" fill="#FEFEFF"/>
</svg>
